<svg width="299" height="188" viewBox="0 0 299 188" fill="none" xmlns="http://www.w3.org/2000/svg">
<path d="M246.449 65.4704L246.164 66.9908L247.678 67.231C275.897 71.7121 297.5 96.5375 297.5 126.504C297.5 159.649 271.076 186.5 238.5 186.5H60.5003C27.9241 186.5 1.5 159.649 1.5 126.504C1.5 93.3602 27.9241 66.5088 60.5003 66.5088H60.5071H61.9692L61.9919 65.032C62.441 35.6798 85.9823 12.0421 114.937 12.0421C127.891 12.0421 139.757 16.7704 148.959 24.6256L150.201 25.6853L151.134 24.3406C160.723 10.5187 176.543 1.5 194.432 1.5C223.667 1.5 247.384 25.5985 247.384 55.3458C247.384 58.8077 247.063 62.1918 246.449 65.4704Z" fill="#EEF2F6" stroke="#CDD5DF" style="fill:#EEF2F6;fill:color(display-p3 0.9333 0.9490 0.9647);fill-opacity:1;stroke:#CDD5DF;stroke:color(display-p3 0.8039 0.8353 0.8745);stroke-opacity:1;" stroke-width="3"/>
</svg>
